<svg viewBox="0 0 512 512" xmlns="http://www.w3.org/2000/svg"><rect width="512" height="512" rx="112" fill="#F5F5FB"/><g transform="translate(64 64) scale(6)"><defs><linearGradient id="vg" x1="50" y1="12" x2="26" y2="51" gradientUnits="userSpaceOnUse"><stop offset="0" stop-color="#4A3AD4"/><stop offset="1" stop-color="#221C57"/></linearGradient></defs><path d="M13 56 C 24 53.4, 40 53.4, 51 55" stroke="#4A3AD4" stroke-width="3" stroke-linecap="round" fill="none"/><path d="M50 12 C 53 24, 44 40, 26 51 C 34 40, 40 22, 50 12 Z" fill="url(#vg)"/><path d="M25.5 50.5 C 33 38, 41 24, 49 13.5" stroke="#221C57" stroke-width="1.5" stroke-linecap="round" fill="none"/><g stroke="#221C57" stroke-width="1" stroke-linecap="round" opacity="0.45" fill="none"><path d="M30 44 C 35 42, 39 39, 42 35"/><path d="M35 35 C 40 33, 43 30, 46 26"/><path d="M40 26 C 44 24, 46 22, 48 18.5"/></g><path d="M21.5 49.5 L 28.5 49.5 L 24.8 56 Z" fill="#221C57"/><path d="M24.9 51.5 L 24.9 55" stroke="#FFFFFF" stroke-width="0.9" stroke-linecap="round"/></g></svg>
