<svg viewBox="0 0 512 512" xmlns="http://www.w3.org/2000/svg"><defs><radialGradient id="tile" cx="30%" cy="22%" r="95%"><stop offset="0" stop-color="#1B1A30"/><stop offset="1" stop-color="#14121F"/></radialGradient><linearGradient id="body" x1="250" y1="108" x2="300" y2="320" gradientUnits="userSpaceOnUse"><stop offset="0" stop-color="#A99EFF"/><stop offset="0.45" stop-color="#6B5BE8"/><stop offset="1" stop-color="#4A3AD4"/></linearGradient></defs><rect x="0" y="0" width="512" height="512" rx="112" fill="url(#tile)"/><path d="M268 104 C 282 130, 306 168, 322 206 C 344 258, 338 300, 304 326 C 336 360, 334 404, 296 426 C 256 449, 196 442, 166 412 C 204 426, 256 420, 280 392 C 298 371, 296 344, 278 326 C 248 332, 218 318, 208 286 C 196 248, 210 206, 234 168 C 248 144, 260 122, 268 104 Z" fill="url(#body)"/><ellipse cx="248" cy="176" rx="17" ry="32" fill="#F5F5FB" opacity="0.5" transform="rotate(-22 248 176)"/><circle cx="252" cy="152" r="7" fill="#FFFFFF" opacity="0.85"/><path d="M150 384 C 210 372, 320 372, 372 386" stroke="#A99EFF" stroke-width="15" stroke-linecap="round" fill="none" opacity="0.9"/></svg>
