<svg viewBox="0 0 512 512" xmlns="http://www.w3.org/2000/svg"><defs><linearGradient id="qtile" x1="0" y1="0" x2="0" y2="512" gradientUnits="userSpaceOnUse"><stop offset="0" stop-color="#1B1A30"/><stop offset="1" stop-color="#14121F"/></linearGradient><radialGradient id="qglow" cx="0.5" cy="0.4" r="0.62"><stop offset="0" stop-color="#4A3AD4" stop-opacity="0.34"/><stop offset="1" stop-color="#4A3AD4" stop-opacity="0"/></radialGradient><linearGradient id="qink" x1="150" y1="110" x2="400" y2="430" gradientUnits="userSpaceOnUse"><stop offset="0" stop-color="#F5F5FB"/><stop offset="0.45" stop-color="#A99EFF"/><stop offset="1" stop-color="#4A3AD4"/></linearGradient></defs><rect x="0" y="0" width="512" height="512" rx="112" fill="url(#qtile)"/><rect x="0" y="0" width="512" height="512" rx="112" fill="url(#qglow)"/><path d="M256 116 C 166 116, 116 186, 116 262 C 116 344, 176 402, 258 402 C 300 402, 336 384, 360 354 C 336 372, 306 382, 276 382 C 206 382, 158 330, 158 258 C 158 194, 200 148, 258 148 C 320 148, 360 198, 360 264 C 360 302, 346 334, 322 356 C 342 392, 372 420, 412 428 C 380 404, 360 376, 354 346 C 382 320, 396 282, 396 248 C 396 172, 340 116, 256 116 Z" fill="url(#qink)"/><circle cx="412" cy="428" r="16" fill="#4A3AD4"/><circle cx="406" cy="421" r="5.5" fill="#A99EFF" opacity="0.95"/></svg>
