<svg viewBox="0 0 512 512" xmlns="http://www.w3.org/2000/svg"><defs><linearGradient id="tile" x1="0" y1="0" x2="0" y2="1"><stop offset="0" stop-color="#1B1A30"/><stop offset="1" stop-color="#14121F"/></linearGradient><linearGradient id="page" x1="0" y1="0" x2="0" y2="1"><stop offset="0" stop-color="#FFFFFF"/><stop offset="1" stop-color="#F5F5FB"/></linearGradient><linearGradient id="nib" x1="0" y1="0" x2="0" y2="1"><stop offset="0" stop-color="#5B49E6"/><stop offset="1" stop-color="#4A3AD4"/></linearGradient></defs><rect x="0" y="0" width="512" height="512" rx="112" fill="url(#tile)"/><rect x="98" y="120" width="316" height="290" rx="34" fill="url(#page)"/><rect x="146" y="320" width="220" height="13" rx="6.5" fill="#A99EFF" fill-opacity="0.5"/><path d="M146 326.5 H214 C236 326.5 248 320 268 314" fill="none" stroke="#4A3AD4" stroke-width="15" stroke-linecap="round"/><path d="M268 314 L300 168 C302 159 312 156 318 162 L356 200 C362 206 360 217 350 219 L300 246 Z" fill="url(#nib)"/><path d="M268 314 L300 168 C302 159 312 156 318 162 L356 200 C362 206 360 217 350 219 L300 246 Z" fill="none" stroke="#221C57" stroke-width="9" stroke-linejoin="round"/><path d="M283 290 L308 200" fill="none" stroke="#221C57" stroke-width="9" stroke-linecap="round"/><circle cx="312" cy="206" r="13" fill="#14121F"/></svg>
