<svg viewBox="0 0 512 512" xmlns="http://www.w3.org/2000/svg"><defs><linearGradient id="tile" x1="0" y1="0" x2="0" y2="1"><stop offset="0" stop-color="#1B1A30"/><stop offset="1" stop-color="#14121F"/></linearGradient><linearGradient id="nib" x1="0" y1="0" x2="0" y2="1"><stop offset="0" stop-color="#FFFFFF"/><stop offset="0.55" stop-color="#F5F5FB"/><stop offset="1" stop-color="#A99EFF"/></linearGradient><linearGradient id="slit" x1="0" y1="0" x2="0" y2="1"><stop offset="0" stop-color="#221C57"/><stop offset="1" stop-color="#4A3AD4"/></linearGradient><radialGradient id="sheen" cx="0.5" cy="0.32" r="0.7"><stop offset="0" stop-color="#4A3AD4" stop-opacity="0.30"/><stop offset="0.6" stop-color="#4A3AD4" stop-opacity="0"/></radialGradient></defs><rect x="0" y="0" width="512" height="512" rx="112" fill="url(#tile)"/><rect x="0" y="0" width="512" height="512" rx="112" fill="url(#sheen)"/><path d="M256 120 L350 168 Q358 172 358 182 L358 268 Q358 300 332 332 L266 416 Q256 428 246 416 L180 332 Q154 300 154 268 L154 182 Q154 172 162 168 Z" fill="url(#nib)"/><circle cx="256" cy="214" r="26" fill="url(#slit)"/><path d="M251 248 L261 248 L257 412 Q256 422 255 412 Z" fill="url(#slit)"/><path d="M256 120 L350 168 Q358 172 358 182 L358 200 Q330 184 256 184 Q182 184 154 200 L154 182 Q154 172 162 168 Z" fill="#FFFFFF" opacity="0.55"/></svg>
