<svg viewBox="0 0 512 512" xmlns="http://www.w3.org/2000/svg"><defs><linearGradient id="tile" x1="96" y1="48" x2="416" y2="464" gradientUnits="userSpaceOnUse"><stop offset="0" stop-color="#1B1A30"/><stop offset="1" stop-color="#14121F"/></linearGradient><radialGradient id="halo" cx="248" cy="236" r="200" gradientUnits="userSpaceOnUse"><stop offset="0" stop-color="#4A3AD4" stop-opacity="0.46"/><stop offset="0.55" stop-color="#4A3AD4" stop-opacity="0.12"/><stop offset="1" stop-color="#4A3AD4" stop-opacity="0"/></radialGradient><linearGradient id="qring" x1="150" y1="118" x2="346" y2="356" gradientUnits="userSpaceOnUse"><stop offset="0" stop-color="#FFFFFF"/><stop offset="0.5" stop-color="#F5F5FB"/><stop offset="1" stop-color="#C7BFFF"/></linearGradient><linearGradient id="tail" x1="236" y1="286" x2="404" y2="400" gradientUnits="userSpaceOnUse"><stop offset="0" stop-color="#C7BFFF"/><stop offset="0.55" stop-color="#A99EFF"/><stop offset="1" stop-color="#4A3AD4"/></linearGradient></defs><rect x="32" y="32" width="448" height="448" rx="112" fill="url(#tile)"/><rect x="32" y="32" width="448" height="448" rx="112" fill="url(#halo)"/><circle cx="234" cy="230" r="108" fill="none" stroke="url(#qring)" stroke-width="42"/><path d="M236 296 C 252 332, 276 364, 312 388 C 340 407, 372 419, 402 421 C 372 432, 332 426, 296 406 C 262 388, 236 358, 220 320 Z" fill="url(#tail)"/><path d="M386 414 C 400 404, 416 404, 426 414 C 416 430, 400 432, 386 422 Z" fill="#4A3AD4"/><circle cx="406" cy="417" r="7.5" fill="#221C57"/></svg>
