<svg viewBox="0 0 512 512" xmlns="http://www.w3.org/2000/svg"><defs><linearGradient id="tile" x1="0" y1="0" x2="0" y2="512" gradientUnits="userSpaceOnUse"><stop offset="0" stop-color="#1B1A30"/><stop offset="1" stop-color="#14121F"/></linearGradient><linearGradient id="vane" x1="352" y1="96" x2="176" y2="392" gradientUnits="userSpaceOnUse"><stop offset="0" stop-color="#A99EFF"/><stop offset="0.55" stop-color="#6B5BEB"/><stop offset="1" stop-color="#4A3AD4"/></linearGradient></defs><rect x="0" y="0" width="512" height="512" rx="112" fill="url(#tile)"/><path d="M356 100 C 392 168, 360 296, 232 392 C 232 392, 196 364, 176 332 C 256 268, 320 184, 356 100 Z" fill="url(#vane)"/><g stroke="#14121F" stroke-width="12" stroke-linecap="round" opacity="0.9"><path d="M300 154 L 224 226"/><path d="M328 208 L 232 290"/><path d="M338 268 L 230 346"/></g><path d="M350 116 C 320 200, 262 282, 196 344" fill="none" stroke="#221C57" stroke-width="13" stroke-linecap="round"/><path d="M196 344 L 226 364 L 184 408 L 168 372 Z" fill="#F5F5FB"/><path d="M188 376 L 196 396" stroke="#4A3AD4" stroke-width="9" stroke-linecap="round"/><path d="M150 432 C 220 416, 312 416, 380 430" fill="none" stroke="#4A3AD4" stroke-width="16" stroke-linecap="round"/></svg>
